<svg xmlns="http://www.w3.org/2000/svg" version="1.1" viewBox="-5.0 -10.0 110.0 135.0">
 <path d="m95 69.5c-10.77 0-19.5-8.7305-19.5-19.5s8.7305-19.5 19.5-19.5c1.6562 0 3-1.3438 3-3s-1.3438-3-3-3c-10.766-0.011719-19.488-8.7344-19.5-19.5 0-1.6562-1.3438-3-3-3s-3 1.3438-3 3c0 10.77-8.7305 19.5-19.5 19.5s-19.5-8.7305-19.5-19.5c0-1.6562-1.3438-3-3-3s-3 1.3438-3 3c-0.011719 10.766-8.7344 19.488-19.5 19.5-1.6562 0-3 1.3438-3 3s1.3438 3 3 3c10.77 0 19.5 8.7305 19.5 19.5s-8.7305 19.5-19.5 19.5c-1.6562 0-3 1.3438-3 3s1.3438 3 3 3c10.766 0.011719 19.488 8.7344 19.5 19.5 0 1.6562 1.3438 3 3 3s3-1.3438 3-3c0-10.77 8.7305-19.5 19.5-19.5s19.5 8.7305 19.5 19.5c0 1.6562 1.3438 3 3 3s3-1.3438 3-3c0.011719-10.766 8.7344-19.488 19.5-19.5 1.6562 0 3-1.3438 3-3s-1.3438-3-3-3zm-22.5-52.508c2.3906 4.4609 6.0469 8.1172 10.508 10.508-4.4609 2.3906-8.1172 6.0469-10.508 10.508-2.3906-4.4609-6.0469-8.1172-10.508-10.508 4.4609-2.3906 8.1172-6.0469 10.508-10.508zm-55.508 10.508c4.4609-2.3906 8.1172-6.0469 10.508-10.508 2.3906 4.4609 6.0469 8.1172 10.508 10.508-4.4609 2.3906-8.1172 6.0469-10.508 10.508-2.3906-4.4609-6.0469-8.1172-10.508-10.508zm10.508 55.508c-2.3906-4.4609-6.0469-8.1172-10.508-10.508 4.4609-2.3906 8.1172-6.0469 10.508-10.508 2.3906 4.4609 6.0469 8.1172 10.508 10.508-4.4609 2.3906-8.1172 6.0469-10.508 10.508zm3-33.008c0-10.77 8.7305-19.5 19.5-19.5s19.5 8.7305 19.5 19.5-8.7305 19.5-19.5 19.5c-10.766-0.011719-19.488-8.7344-19.5-19.5zm42 33.008c-2.3906-4.4609-6.0469-8.1172-10.508-10.508 4.4609-2.3906 8.1172-6.0469 10.508-10.508 2.3906 4.4609 6.0469 8.1172 10.508 10.508-4.4609 2.3906-8.1172 6.0469-10.508 10.508z" />
</svg>